<svg id="visual" viewBox="0 0 1980 1080" width="1980" height="1080" xmlns="http://www.w3.org/2000/svg" xmlns:xlink="http://www.w3.org/1999/xlink" version="1.1"><rect x="0" y="0" width="1980" height="1080" fill="#ffffff"></rect><path d="M0 770L47.2 797.7C94.3 825.3 188.7 880.7 283 905.3C377.3 930 471.7 924 566 913.2C660.3 902.3 754.7 886.7 848.8 868C943 849.3 1037 827.7 1131.2 838.8C1225.3 850 1319.7 894 1414 887.7C1508.3 881.3 1602.7 824.7 1697 794.2C1791.3 763.7 1885.7 759.3 1932.8 757.2L1980 755L1980 1081L1932.8 1081C1885.7 1081 1791.3 1081 1697 1081C1602.7 1081 1508.3 1081 1414 1081C1319.7 1081 1225.3 1081 1131.2 1081C1037 1081 943 1081 848.8 1081C754.7 1081 660.3 1081 566 1081C471.7 1081 377.3 1081 283 1081C188.7 1081 94.3 1081 47.2 1081L0 1081Z" fill="#7ac18b" stroke-linecap="round" stroke-linejoin="miter"></path></svg>